<?xml version="1.0" standalone="no"?>
<!DOCTYPE svg PUBLIC "-//W3C//DTD SVG 20010904//EN"
 "http://www.w3.org/TR/2001/REC-SVG-20010904/DTD/svg10.dtd">
<svg version="1.0" xmlns="http://www.w3.org/2000/svg"
 width="135.000000pt" height="135.000000pt" viewBox="0 0 135.000000 135.000000"
 preserveAspectRatio="xMidYMid meet">
<metadata>
Created by potrace 1.11, written by Peter Selinger 2001-2013
</metadata>
<g transform="translate(0.000000,135.000000) scale(0.100000,-0.100000)"
fill="#000000" stroke="none">
<path d="M300 1125 c0 -20 -5 -25 -25 -25 -20 0 -25 -5 -25 -25 0 -20 -5 -25
-25 -25 -20 0 -25 -5 -25 -25 0 -20 5 -25 25 -25 20 0 25 -5 25 -25 0 -20 5
-25 25 -25 20 0 25 -5 25 -25 0 -20 -5 -25 -25 -25 l-25 0 0 -150 0 -150 25 0
c20 0 25 -5 25 -25 0 -20 5 -25 25 -25 20 0 25 -5 25 -25 0 -20 5 -25 25 -25
20 0 25 -5 25 -25 0 -20 -5 -25 -25 -25 -20 0 -25 -5 -25 -25 0 -20 -5 -25
-25 -25 -23 0 -25 -3 -25 -50 0 -47 2 -50 25 -50 20 0 25 -5 25 -25 0 -20 5
-25 25 -25 23 0 25 -3 25 -50 0 -47 2 -50 25 -50 20 0 25 -5 25 -25 0 -20 5
-25 25 -25 20 0 25 -5 25 -25 0 -20 5 -25 25 -25 20 0 25 5 25 25 0 20 5 25
25 25 20 0 25 5 25 25 0 24 2 25 75 25 73 0 75 -1 75 -25 0 -20 5 -25 25 -25
20 0 25 -5 25 -25 0 -20 5 -25 25 -25 20 0 25 5 25 25 0 20 5 25 25 25 20 0
25 5 25 25 0 20 5 25 25 25 23 0 25 3 25 50 0 47 2 50 25 50 20 0 25 5 25 25
0 20 5 25 25 25 23 0 25 3 25 50 0 47 -2 50 -25 50 -20 0 -25 5 -25 25 0 20
-5 25 -25 25 -20 0 -25 5 -25 25 0 20 5 25 25 25 20 0 25 5 25 25 0 20 5 25
25 25 20 0 25 5 25 25 0 20 5 25 25 25 l25 0 0 150 0 150 -25 0 c-20 0 -25 5
-25 25 0 20 5 25 25 25 20 0 25 5 25 25 0 20 5 25 25 25 20 0 25 5 25 25 0 20
-5 25 -25 25 -20 0 -25 5 -25 25 0 20 -5 25 -25 25 -20 0 -25 5 -25 25 0 24
-2 25 -75 25 -73 0 -75 -1 -75 -25 0 -20 -5 -25 -25 -25 -20 0 -25 5 -25 25
l0 25 -175 0 -175 0 0 -25 c0 -20 -5 -25 -25 -25 -20 0 -25 5 -25 25 0 24 -2
25 -75 25 -73 0 -75 -1 -75 -25z"/>
</g>
</svg>
